<svg xmlns="http://www.w3.org/2000/svg" width="143" height="60" viewBox="0 0 143 60" fill="none">
  <g clip-path="url(#clip0_0_308)">
    <path d="M141.016 3.73476C128.685 3.13332 116.353 2.55127 104.021 1.94983C101.415 1.83342 101.415 5.84953 104.021 5.98534C114.427 6.48978 124.814 6.99422 135.22 7.49866C126.856 13.1639 118.784 19.256 110.693 25.2704C104.877 29.597 98.5753 31.3237 92.6429 26.0853C88.2276 22.1856 86.4965 15.9771 83.8512 10.9133C81.381 6.15995 77.2381 1.21257 71.5391 0.59172C64.5952 -0.164939 58.41 4.62723 53.8975 9.3418C44.25 19.4112 40.5544 33.5355 33.1632 45.0988C29.7594 50.4342 24.9551 55.5174 18.1864 55.6144C11.5927 55.7114 6.24377 50.0074 4.02641 44.3033C3.09279 41.8975 -0.816757 42.9452 0.136317 45.3704C4.68773 57.1083 17.9141 64.2093 29.0008 55.8472C33.9802 52.0833 37.3062 46.4569 40.1849 41.0439C43.4137 34.9518 46.1367 28.6269 49.4628 22.593C53.0806 16.0159 57.7876 9.78804 64.4591 6.08235C71.5974 2.12444 77.0436 6.7808 80.3696 12.9311C83.0538 17.8785 84.7654 23.2721 88.5193 27.5986C92.8179 32.5654 99.2755 34.6414 105.597 32.7594C108.767 31.8088 111.354 29.7522 113.961 27.8314C116.761 25.7555 119.582 23.6795 122.402 21.6036C126.72 18.4411 131.038 15.2787 135.453 12.2132C130.785 21.3513 126.117 30.47 121.449 39.6082C120.263 41.9169 123.764 43.9541 124.931 41.6453C130.883 30.0044 136.834 18.3829 142.786 6.742C143.506 5.34509 142.611 3.79297 141.036 3.71536L141.016 3.73476Z" fill="#0C0819"/>
  </g>
  <defs>
    <clipPath id="clip0_0_308">
      <rect width="143" height="59" fill="white" transform="translate(0 0.51416)"/>
    </clipPath>
  </defs>
</svg>