<svg xmlns="http://www.w3.org/2000/svg" width="36" height="37" viewBox="0 0 36 37" fill="none">
  <rect y="0.51416" width="36" height="36" rx="8" fill="#E7E6F2"/>
  <path fill-rule="evenodd" clip-rule="evenodd" d="M9 18.5142C9 14.919 9 13.1215 9.85669 11.8267C10.2392 11.2485 10.7344 10.7534 11.3126 10.3709C12.6073 9.51416 14.4049 9.51416 18 9.51416C21.5951 9.51416 23.3927 9.51416 24.6874 10.3709C25.2656 10.7534 25.7608 11.2485 26.1433 11.8267C27 13.1215 27 14.919 27 18.5142C27 22.1093 27 23.9069 26.1433 25.2016C25.7608 25.7798 25.2656 26.2749 24.6874 26.6575C23.3927 27.5142 21.5951 27.5142 18 27.5142C14.4049 27.5142 12.6073 27.5142 11.3126 26.6575C10.7344 26.2749 10.2392 25.7798 9.85669 25.2016C9 23.9069 9 22.1093 9 18.5142ZM22.6593 18.5144C22.6593 21.0877 20.5732 23.1738 17.9998 23.1738C15.4265 23.1738 13.3404 21.0877 13.3404 18.5144C13.3404 15.9411 15.4265 13.855 17.9998 13.855C20.5732 13.855 22.6593 15.9411 22.6593 18.5144ZM17.9998 21.5974C19.7025 21.5974 21.0828 20.2171 21.0828 18.5144C21.0828 16.8117 19.7025 15.4314 17.9998 15.4314C16.2971 15.4314 14.9168 16.8117 14.9168 18.5144C14.9168 20.2171 16.2971 21.5974 17.9998 21.5974ZM22.8433 14.7157C23.4479 14.7157 23.9381 14.2255 23.9381 13.6209C23.9381 13.0162 23.4479 12.5261 22.8433 12.5261C22.2386 12.5261 21.7485 13.0162 21.7485 13.6209C21.7485 14.2255 22.2386 14.7157 22.8433 14.7157Z" fill="#8D8BA7"/>
</svg>