<svg xmlns="http://www.w3.org/2000/svg" width="62" height="21" viewBox="0 0 62 21" fill="none">
<path d="M15.0165 7.90769H7.88781V10.0199H12.9373C12.6898 12.9902 10.2145 14.2443 7.88781 14.2443C4.901 14.2443 2.31024 11.9011 2.31024 8.61726C2.31024 5.41594 4.78549 2.95719 7.88781 2.95719C10.2806 2.95719 11.6997 4.49184 11.6997 4.49184L13.1848 2.95719C13.1848 2.95719 11.2872 0.844971 7.8218 0.844971C3.41585 0.844971 0 4.57435 0 8.58426C0 12.5282 3.21783 16.373 7.93731 16.373C12.0957 16.373 15.132 13.5183 15.132 9.31033C15.132 8.41924 15.0165 7.90769 15.0165 7.90769Z" fill="white"/>
<path d="M20.8422 6.37292C17.9214 6.37292 15.8257 8.66666 15.8257 11.3234C15.8257 14.0297 17.8554 16.3564 20.8752 16.3564C23.6145 16.3564 25.8422 14.2607 25.8422 11.3894C25.8587 8.0726 23.2514 6.37292 20.8422 6.37292ZM20.8752 8.33663C22.3108 8.33663 23.6805 9.49174 23.6805 11.3729C23.6805 13.2046 22.3273 14.4092 20.8752 14.4092C19.2745 14.4092 18.0204 13.1386 18.0204 11.3729C18.0204 9.62376 19.258 8.33663 20.8752 8.33663Z" fill="white"/>
<path d="M31.7665 6.37292C28.8457 6.37292 26.75 8.66666 26.75 11.3234C26.75 14.0297 28.7797 16.3564 31.7995 16.3564C34.5388 16.3564 36.7665 14.2607 36.7665 11.3894C36.7665 8.0726 34.1593 6.37292 31.7665 6.37292ZM31.7995 8.33663C33.2352 8.33663 34.6048 9.49174 34.6048 11.3729C34.6048 13.2046 33.2517 14.4092 31.7995 14.4092C30.1989 14.4092 28.9447 13.1386 28.9447 11.3729C28.9282 9.62376 30.1824 8.33663 31.7995 8.33663Z" fill="white"/>
<path d="M42.4583 6.37292C39.7686 6.37292 37.6729 8.71617 37.6729 11.3564C37.6729 14.3597 40.1151 16.3564 42.4253 16.3564C43.8445 16.3564 44.6036 15.7954 45.1646 15.1353V16.1254C45.1646 17.8416 44.125 18.8812 42.5408 18.8812C41.0227 18.8812 40.2471 17.7426 39.9831 17.099L38.0689 17.9076C38.7455 19.3432 40.1151 20.8449 42.5574 20.8449C45.2306 20.8449 47.2603 19.1617 47.2603 15.6469V6.66996H45.1646V7.51154C44.5211 6.83497 43.63 6.37292 42.4583 6.37292ZM42.6564 8.33663C43.9765 8.33663 45.3296 9.45874 45.3296 11.3729C45.3296 13.3201 43.9765 14.3927 42.6399 14.3927C41.2042 14.3927 39.8841 13.2376 39.8841 11.3894C39.8676 9.47524 41.2537 8.33663 42.6564 8.33663Z" fill="white"/>
<path d="M56.5524 6.37292C54.0276 6.37292 51.8989 8.38613 51.8989 11.3564C51.8989 14.5083 54.2752 16.3729 56.7999 16.3729C58.9121 16.3729 60.2158 15.2178 60.9749 14.1782L59.2422 13.0231C58.7966 13.7162 58.0376 14.3927 56.7999 14.3927C55.3973 14.3927 54.7537 13.6172 54.3577 12.8746L61.0574 10.1023L60.7108 9.29372C60.0673 7.69306 58.5491 6.37292 56.5524 6.37292ZM56.6514 8.28712C57.559 8.28712 58.2191 8.76567 58.4996 9.35973L54.0276 11.2244C53.8296 9.77227 55.1993 8.28712 56.6514 8.28712Z" fill="white"/>
<path d="M50.9076 1.35693H48.7129V16.0764H50.9076V1.35693Z" fill="white"/>
</svg>