<svg xmlns="http://www.w3.org/2000/svg" width="88" height="21" viewBox="0 0 88 21" fill="none">
  <g clip-path="url(#clip0_0_160)">
    <path d="M7.13016 5.17236C6.068 5.17236 5.83197 5.64019 5.83197 6.57587V8.21329H8.54637L8.31033 10.9034H5.83197V18.9735H2.52749V10.9034H0.285156V8.21329H2.52749V6.57587C2.52749 3.88581 3.58964 2.4823 6.65809 2.4823H8.54637V4.93844L7.13016 5.17236ZM8.7824 13.2425C8.7824 10.2016 10.1986 7.97938 13.2671 7.97938C14.9193 7.97938 15.8634 8.79809 16.3355 9.85072V8.21329H19.522V18.9735H16.3355V17.3361C15.8634 18.3887 14.8013 19.2074 13.2671 19.2074C10.1986 19.2074 8.7824 16.9852 8.7824 13.9443V13.2425ZM12.0869 13.9443C12.0869 15.5817 12.677 16.6343 14.2112 16.6343C15.7454 16.6343 16.2175 15.6987 16.2175 14.1782V13.1256C16.2175 11.6051 15.5094 10.6694 14.2112 10.6694C12.913 10.6694 12.0869 11.7221 12.0869 13.3595V13.9443ZM26.367 7.97938C27.6652 7.97938 28.8453 8.21329 29.5534 8.68113L28.8453 11.0203C28.1424 10.7008 27.3763 10.541 26.603 10.5525C24.8328 10.5525 24.0066 11.6051 24.0066 13.3595V13.9443C24.0066 15.6987 24.8328 16.7513 26.603 16.7513C27.3763 16.7628 28.1424 16.6029 28.8453 16.2835L29.5534 18.6227C28.8453 19.0905 27.6652 19.3244 26.367 19.3244C22.4724 19.3244 20.7022 17.2191 20.7022 13.9443V13.4765C20.7022 10.0846 22.4724 7.97938 26.367 7.97938ZM29.9075 14.0612V13.1256C29.9075 10.0846 31.6778 8.09634 35.2183 8.09634C38.7588 8.09634 40.057 10.0846 40.057 13.1256V14.88H33.212C33.33 16.4004 33.9201 16.9852 35.8084 16.9852C37.6966 16.9852 38.2867 16.7513 39.3489 16.2835L39.939 18.5057C39.1129 18.9735 37.3426 19.3244 35.6903 19.3244C31.4417 19.2074 29.9075 17.2191 29.9075 14.0612ZM33.212 12.6577H37.2246V12.4238C37.2246 11.2542 36.7525 10.3186 35.3363 10.3186C33.9201 10.3186 33.212 11.1373 33.212 12.6577ZM52.2128 13.9443C52.2128 16.9852 50.7966 19.2074 47.7281 19.2074C46.0759 19.2074 44.8957 18.3887 44.5416 17.3361V18.9735H41.4732V2.83318L44.7777 2.4823V9.6168C45.2498 8.68113 46.3119 7.86242 47.8461 7.86242C50.9146 7.86242 52.3308 10.0846 52.3308 13.1256L52.2128 13.9443ZM48.9083 13.2425C48.9083 11.7221 48.3182 10.5525 46.784 10.5525C45.2498 10.5525 44.6597 11.4881 44.6597 13.0086V14.1782C44.6597 15.6987 45.3678 16.6343 46.784 16.6343C48.2002 16.6343 48.9083 15.4648 48.9083 13.9443V13.2425ZM53.3929 13.8273V13.2425C53.3929 10.2016 55.1632 7.86242 58.8217 7.86242C62.4803 7.86242 64.2505 10.0846 64.2505 13.2425V13.8273C64.2505 16.8683 62.4803 19.2074 58.8217 19.2074C55.1632 19.2074 53.3929 16.9852 53.3929 13.8273ZM60.9461 13.0086C60.9461 11.6051 60.356 10.4355 58.8217 10.4355C57.2875 10.4355 56.6974 11.6051 56.6974 13.0086V14.0612C56.6974 15.4648 57.2875 16.6343 58.8217 16.6343C60.356 16.6343 60.9461 15.4648 60.9461 14.0612V13.0086ZM65.1947 13.8273V13.2425C65.1947 10.2016 66.9649 7.86242 70.6235 7.86242C74.282 7.86242 76.0523 10.0846 76.0523 13.2425V13.8273C76.0523 16.8683 74.282 19.2074 70.6235 19.2074C66.9649 19.2074 65.1947 16.9852 65.1947 13.8273ZM72.7478 13.0086C72.7478 11.6051 72.1577 10.4355 70.6235 10.4355C69.0892 10.4355 68.4992 11.6051 68.4992 13.0086V14.0612C68.4992 15.4648 69.0892 16.6343 70.6235 16.6343C72.1577 16.6343 72.7478 15.4648 72.7478 14.0612V13.0086ZM80.5369 13.3595L83.7234 8.21329H87.2639L83.8414 13.4765L87.3819 18.9735H83.9594L80.5369 13.7104V18.9735H77.2324V2.83318L80.5369 2.4823V13.3595Z" fill="white"/>
  </g>
  <defs>
    <clipPath id="clip0_0_160">
      <rect width="87.0968" height="20" fill="white" transform="translate(0.285156 0.844971)"/>
    </clipPath>
  </defs>
</svg>