<svg xmlns="http://www.w3.org/2000/svg" width="36" height="37" viewBox="0 0 36 37" fill="none">
  <rect y="0.51416" width="36" height="36" rx="8" fill="#E7E6F2"/>
  <path d="M9 11.934C9 11.3568 9.20271 10.8806 9.60811 10.5054C10.0135 10.1302 10.5405 9.94263 11.1892 9.94263C11.8263 9.94263 12.3417 10.1273 12.7355 10.4967C13.1409 10.8777 13.3436 11.3741 13.3436 11.9859C13.3436 12.54 13.1467 13.0018 12.7529 13.3712C12.3475 13.7521 11.8147 13.9426 11.1544 13.9426H11.1371C10.5 13.9426 9.98456 13.7521 9.59073 13.3712C9.19691 12.9902 9 12.5112 9 11.934ZM9.22587 27.0855V15.5184H13.083V27.0855H9.22587ZM15.2201 27.0855H19.0772V20.6266C19.0772 20.2226 19.1236 19.9109 19.2162 19.6915C19.3784 19.299 19.6245 18.9671 19.9546 18.6959C20.2847 18.4246 20.6988 18.2889 21.1969 18.2889C22.4942 18.2889 23.1429 19.1605 23.1429 20.9037V27.0855H27V20.4534C27 18.7449 26.5946 17.4491 25.7838 16.566C24.973 15.6829 23.9015 15.2413 22.5695 15.2413C21.0753 15.2413 19.9112 15.882 19.0772 17.1634V17.198H19.0598L19.0772 17.1634V15.5184H15.2201C15.2432 15.8878 15.2548 17.0364 15.2548 18.9643C15.2548 20.8921 15.2432 23.5992 15.2201 27.0855Z" fill="#8D8BA7"/>
</svg>