<svg xmlns="http://www.w3.org/2000/svg" width="36" height="37" viewBox="0 0 36 37" fill="none">
  <rect y="0.51416" width="36" height="36" rx="8" fill="#E7E6F2"/>
  <path d="M21.0271 11.2154V11.2122H21.8711L22.1794 11.2738C22.385 11.3137 22.5717 11.3661 22.7394 11.431C22.9071 11.4958 23.0694 11.5714 23.2263 11.6579C23.3832 11.7443 23.5255 11.8324 23.6532 11.9221C23.7798 12.0107 23.8934 12.1047 23.9941 12.2041C24.0936 12.3046 24.2489 12.3305 24.4599 12.2819C24.6709 12.2333 24.8981 12.1657 25.1416 12.0793C25.385 11.9929 25.6258 11.8956 25.8638 11.7876C26.1019 11.6795 26.2469 11.6109 26.2988 11.5817C26.3497 11.5515 26.3768 11.5353 26.38 11.5331L26.3832 11.5282L26.3995 11.5201L26.4157 11.512L26.4319 11.5039L26.4482 11.4958L26.4514 11.4909L26.4563 11.4877L26.4612 11.4845L26.4644 11.4796L26.4806 11.4747L26.4968 11.4715L26.4936 11.4958L26.4887 11.5201L26.4806 11.5444L26.4725 11.5687L26.4644 11.585L26.4563 11.6012L26.4482 11.6255C26.4427 11.6417 26.4373 11.6633 26.4319 11.6903C26.4265 11.7173 26.3751 11.8254 26.2777 12.0145C26.1803 12.2036 26.0586 12.3954 25.9125 12.5899C25.7665 12.7844 25.6355 12.9313 25.5198 13.0307C25.4029 13.1312 25.3255 13.2015 25.2876 13.2415C25.2498 13.2825 25.2038 13.3203 25.1497 13.3549L25.0685 13.4084L25.0523 13.4165L25.0361 13.4246L25.0328 13.4295L25.028 13.4327L25.0231 13.436L25.0198 13.4408L25.0036 13.4489L24.9874 13.457L24.9841 13.4619L24.9793 13.4651L24.9744 13.4684L24.9711 13.4732L24.9679 13.4781L24.963 13.4813L24.9582 13.4846L24.9549 13.4894H25.0361L25.4905 13.3922C25.7935 13.3274 26.083 13.249 26.3589 13.1572L26.7971 13.0113L26.8458 12.9951L26.8702 12.987L26.8864 12.9789L26.9026 12.9708L26.9188 12.9627L26.9351 12.9546L26.9675 12.9497L27 12.9465V12.9789L26.9919 12.9821L26.9838 12.987L26.9805 12.9918L26.9757 12.9951L26.9708 12.9983L26.9675 13.0032L26.9643 13.008L26.9594 13.0113L26.9546 13.0145L26.9513 13.0194L26.9481 13.0243L26.9432 13.0275L26.9351 13.0437L26.927 13.0599L26.9221 13.0632C26.9199 13.0664 26.8512 13.1582 26.716 13.3387C26.5807 13.5202 26.5077 13.6121 26.4968 13.6142C26.486 13.6175 26.4709 13.6337 26.4514 13.6629C26.433 13.6931 26.3183 13.8136 26.1073 14.0243C25.8963 14.235 25.6897 14.4225 25.4873 14.5867C25.2839 14.7521 25.1811 14.9552 25.1789 15.1962C25.1757 15.4361 25.1632 15.7073 25.1416 16.0098C25.1199 16.3124 25.0794 16.6393 25.0198 16.9905C24.9603 17.3416 24.8684 17.7387 24.7439 18.1818C24.6195 18.6248 24.468 19.057 24.2894 19.4784C24.1109 19.8999 23.9243 20.2781 23.7295 20.613C23.5347 20.948 23.3562 21.2317 23.1939 21.464C23.0316 21.6963 22.8666 21.9151 22.6988 22.1204C22.5311 22.3257 22.319 22.557 22.0626 22.8141C21.8051 23.0702 21.6644 23.2107 21.6406 23.2356C21.6157 23.2593 21.5097 23.3479 21.3225 23.5014C21.1363 23.6559 20.9362 23.8104 20.7219 23.9649C20.5088 24.1184 20.3129 24.2464 20.1344 24.3491C19.9558 24.4517 19.7405 24.569 19.4884 24.7008C19.2373 24.8337 18.9657 24.9569 18.6736 25.0703C18.3814 25.1838 18.073 25.2892 17.7484 25.3864C17.4238 25.4837 17.11 25.5593 16.807 25.6133C16.5041 25.6674 16.1605 25.7133 15.7764 25.7511L15.2002 25.8078V25.8159H14.1452V25.8078L14.0072 25.7997C13.9152 25.7943 13.8395 25.7889 13.78 25.7835C13.7205 25.7781 13.4959 25.7484 13.1064 25.6944C12.7169 25.6403 12.4112 25.5863 12.1894 25.5323C11.9675 25.4783 11.6375 25.3756 11.1993 25.2243C10.761 25.0731 10.3861 24.9201 10.0745 24.7656C9.76394 24.6122 9.56917 24.5149 9.49017 24.4739C9.41226 24.4339 9.32462 24.3842 9.22723 24.3248L9.08115 24.2356L9.07792 24.2308L9.07304 24.2275L9.06817 24.2243L9.06492 24.2194L9.04869 24.2113L9.03246 24.2032L9.02923 24.1983L9.02435 24.1951L9.01948 24.1919L9.01623 24.187L9.013 24.1821L9.00812 24.1789H9V24.1465L9.01623 24.1497L9.03246 24.1546L9.1055 24.1627C9.15419 24.1681 9.28675 24.1762 9.50316 24.187C9.71958 24.1978 9.9495 24.1978 10.193 24.187C10.4364 24.1762 10.6853 24.1519 10.9396 24.1141C11.1939 24.0762 11.4941 24.0114 11.8404 23.9195C12.1867 23.8277 12.5048 23.7186 12.7948 23.5921C13.0837 23.4646 13.2893 23.3696 13.4116 23.3069C13.5327 23.2453 13.7178 23.1307 13.9666 22.9633L14.3399 22.712L14.3432 22.7072L14.3481 22.7039L14.3529 22.7007L14.3562 22.6958L14.3594 22.691L14.3643 22.6877L14.3692 22.6845L14.3724 22.6796L14.3886 22.6747L14.4049 22.6715L14.4081 22.6553L14.413 22.6391L14.4179 22.6358L14.4211 22.631L14.2913 22.6229C14.2047 22.6175 14.1208 22.6121 14.0397 22.6067C13.9585 22.6013 13.8314 22.577 13.6583 22.5337C13.4851 22.4905 13.2985 22.4257 13.0983 22.3392C12.8981 22.2528 12.7033 22.1501 12.514 22.0313C12.3246 21.9124 12.1877 21.8135 12.1033 21.7347C12.02 21.6568 11.9118 21.5466 11.7787 21.404C11.6467 21.2603 11.532 21.1128 11.4346 20.9615C11.3372 20.8102 11.2442 20.6357 11.1555 20.438L11.0207 20.143L11.0126 20.1187L11.0045 20.0944L10.9996 20.0782L10.9964 20.0619L11.0207 20.0652L11.0451 20.0701L11.2236 20.0944C11.3427 20.1106 11.5293 20.116 11.7836 20.1106C12.0379 20.1052 12.2137 20.0944 12.3111 20.0782C12.4085 20.0619 12.468 20.0511 12.4896 20.0457L12.5221 20.0376L12.5627 20.0295L12.6032 20.0214L12.6065 20.0166L12.6114 20.0133L12.6162 20.0101L12.6195 20.0052L12.587 19.9971L12.5546 19.989L12.5221 19.9809L12.4896 19.9728L12.4572 19.9647C12.4355 19.9593 12.3977 19.9485 12.3436 19.9323C12.2895 19.9161 12.1434 19.8566 11.9053 19.754C11.6673 19.6513 11.4779 19.5514 11.3372 19.4541C11.1962 19.3566 11.0618 19.2499 10.9347 19.1348C10.8081 19.0181 10.6691 18.8679 10.5176 18.6842C10.3661 18.5005 10.2308 18.2871 10.1118 18.044C9.99279 17.8009 9.90352 17.5686 9.844 17.347C9.78472 17.1268 9.74561 16.9017 9.72716 16.6744L9.69793 16.334L9.71416 16.3373L9.73039 16.3421L9.74662 16.3502L9.76285 16.3583L9.77908 16.3664L9.79531 16.3745L10.0469 16.488C10.2146 16.5636 10.4229 16.6285 10.6718 16.6825C10.9207 16.7365 11.0694 16.7662 11.1181 16.7716L11.1912 16.7797H11.3372L11.334 16.7749L11.3291 16.7716L11.3243 16.7684L11.321 16.7635L11.3178 16.7587L11.3129 16.7554L11.308 16.7522L11.3048 16.7473L11.2885 16.7392L11.2723 16.7311L11.2691 16.7263L11.2642 16.723L11.2593 16.7198L11.2561 16.7149L11.2399 16.7068L11.2236 16.6987L11.2204 16.6938C11.2171 16.6917 11.1706 16.6571 11.0808 16.5901C10.9921 16.522 10.899 16.434 10.8016 16.3259C10.7042 16.2178 10.6069 16.1044 10.5095 15.9855C10.4119 15.8664 10.325 15.739 10.2498 15.6046C10.174 15.4696 10.094 15.2977 10.0096 15.0892C9.92625 14.8817 9.86294 14.6727 9.81966 14.4619C9.77639 14.2512 9.75204 14.0432 9.74662 13.8379C9.74121 13.6326 9.74662 13.457 9.76285 13.3111C9.77908 13.1653 9.81154 13.0005 9.86023 12.8168C9.90893 12.6331 9.97927 12.4386 10.0712 12.2333L10.2092 11.9253L10.2173 11.901L10.2254 11.8767L10.2303 11.8735L10.2335 11.8686L10.2368 11.8637L10.2417 11.8605L10.2465 11.8637L10.2498 11.8686L10.253 11.8735L10.2579 11.8767L10.2628 11.8799L10.266 11.8848L10.2693 11.8897L10.2741 11.8929L10.2822 11.9091L10.2904 11.9253L10.2952 11.9286L10.2985 11.9334L10.5176 12.1766C10.6637 12.3386 10.8368 12.5196 11.037 12.7195C11.2372 12.9194 11.3481 13.0232 11.3697 13.0307C11.3914 13.0394 11.4184 13.0642 11.4509 13.1053C11.4833 13.1453 11.5915 13.2409 11.7755 13.3922C11.9594 13.5435 12.2002 13.7191 12.4977 13.919C12.7953 14.1189 13.1253 14.3161 13.4878 14.5106C13.8503 14.7051 14.2399 14.8807 14.6564 15.0373C15.073 15.194 15.3652 15.2967 15.5329 15.3453C15.7006 15.3939 15.9874 15.4561 16.3931 15.5317C16.7989 15.6073 17.1046 15.656 17.3102 15.6776C17.5158 15.6992 17.6565 15.7116 17.7322 15.7149L17.8458 15.7181L17.8426 15.6938L17.8377 15.6695L17.8052 15.4669C17.7836 15.3318 17.7728 15.1427 17.7728 14.8996C17.7728 14.6564 17.7917 14.4322 17.8296 14.2269C17.8675 14.0216 17.9243 13.8136 18 13.6029C18.0757 13.3922 18.1499 13.2231 18.2224 13.0956C18.296 12.9691 18.3923 12.8249 18.5113 12.6628C18.6303 12.5007 18.7845 12.3332 18.9739 12.1604C19.1632 11.9875 19.3796 11.8335 19.6231 11.6984C19.8665 11.5633 20.0911 11.4607 20.2967 11.3905C20.5023 11.3202 20.6754 11.2743 20.8161 11.2527C20.9567 11.2311 21.0271 11.2186 21.0271 11.2154Z" fill="#8D8BA7"/>
</svg>