<svg xmlns="http://www.w3.org/2000/svg" width="85" height="21" viewBox="0 0 85 21" fill="none">
<path d="M26.3504 3.97684C26.0398 2.74973 25.1254 1.77904 23.9695 1.44937C21.8819 0.844971 13.4798 0.844971 13.4798 0.844971C13.4798 0.844971 5.07769 0.863286 2.9901 1.46768C1.83416 1.79735 0.919768 2.76805 0.609218 3.99515C0.0571289 6.21127 0.0571289 10.845 0.0571289 10.845C0.0571289 10.845 0.0571289 15.4787 0.626471 17.7131C0.93702 18.9402 1.85142 19.9109 3.00735 20.2406C5.09494 20.845 13.497 20.845 13.497 20.845C13.497 20.845 21.8991 20.845 23.9867 20.2406C25.1427 19.9109 26.0571 18.9402 26.3676 17.7131C26.937 15.497 26.937 10.845 26.937 10.845C26.937 10.845 26.9197 6.21127 26.3504 3.97684Z" fill="white"/>
<path d="M17.7758 10.845L10.8057 6.55933V15.1308L17.7758 10.845Z" fill="#9289EC"/>
<path d="M39.0484 19.0318C38.5136 18.6472 38.134 18.0611 37.9098 17.2552C37.6855 16.4494 37.5819 15.3871 37.5819 14.0501V12.2369C37.5819 10.8999 37.7027 9.80103 37.9615 8.99517C38.2203 8.171 38.6171 7.58491 39.1692 7.21861C39.7213 6.85231 40.4287 6.65085 41.3085 6.65085C42.1712 6.65085 42.8786 6.834 43.3961 7.21861C43.9137 7.60323 44.3105 8.18931 44.5521 8.99517C44.7936 9.80103 44.9144 10.8816 44.9144 12.2186V14.0318C44.9144 15.3688 44.7936 16.4311 44.5521 17.2369C44.3105 18.0428 43.931 18.6289 43.3961 19.0135C42.8613 19.3798 42.1367 19.5813 41.2395 19.5813C40.3079 19.5996 39.5833 19.3981 39.0484 19.0318ZM42.0332 17.0721C42.1884 16.6692 42.2575 15.9915 42.2575 15.0758V11.1747C42.2575 10.2772 42.1884 9.61788 42.0332 9.21495C41.8779 8.79371 41.6191 8.59224 41.2568 8.59224C40.8945 8.59224 40.6529 8.79371 40.4977 9.21495C40.3424 9.6362 40.2734 10.2772 40.2734 11.1747V15.0758C40.2734 15.9915 40.3424 16.6692 40.4804 17.0721C40.6184 17.475 40.8772 17.6765 41.2568 17.6765C41.6191 17.6765 41.8779 17.475 42.0332 17.0721ZM79.8513 14.0867V14.7278L79.9203 16.541C79.972 16.9439 80.0583 17.2369 80.1963 17.4201C80.3343 17.6032 80.5586 17.6948 80.8519 17.6948C81.2487 17.6948 81.5248 17.53 81.6628 17.2003C81.8181 16.8706 81.8871 16.3212 81.9043 15.5703L84.199 15.7168C84.2162 15.8267 84.2162 15.9732 84.2162 16.1563C84.2162 17.3102 83.9229 18.171 83.3191 18.7388C82.7152 19.3065 81.8871 19.5996 80.8002 19.5996C79.4889 19.5996 78.5746 19.16 78.057 18.2992C77.5394 17.4384 77.2633 16.0831 77.2633 14.2699V12.0538C77.2633 10.1856 77.5394 8.81202 78.0742 7.95121C78.6263 7.09041 79.558 6.65085 80.8692 6.65085C81.7836 6.65085 82.4737 6.834 82.9568 7.18198C83.4398 7.52997 83.7849 8.07942 83.9919 8.83034C84.199 9.58125 84.2852 10.6069 84.2852 11.9256V14.0684H79.8513V14.0867ZM80.1963 8.81202C80.0583 8.99517 79.972 9.2699 79.9203 9.67283C79.8685 10.0758 79.8513 10.6802 79.8513 11.5043V12.4018H81.7836V11.5043C81.7836 10.6985 81.7663 10.0941 81.7146 9.67283C81.6628 9.25158 81.5765 8.95854 81.4385 8.79371C81.3005 8.62887 81.0935 8.5373 80.8174 8.5373C80.5241 8.55561 80.3171 8.64719 80.1963 8.81202ZM32.5959 13.8487L29.5767 2.27356H32.2163L33.2688 7.51165C33.5448 8.81202 33.7346 9.91092 33.8726 10.8084H33.9416C34.0279 10.149 34.2349 9.06843 34.5455 7.52997L35.6324 2.27356H38.2721L35.2183 13.8303V19.3798H32.6132V13.8487H32.5959Z" fill="white"/>
<path d="M53.4724 6.88904V19.3982H51.4021L51.1778 17.8597H51.126C50.5567 19.0136 49.7113 19.5997 48.5899 19.5997C47.8135 19.5997 47.2269 19.3249 46.8646 18.7755C46.485 18.226 46.3125 17.3835 46.3125 16.2297V6.88904H48.9694V16.0649C48.9694 16.6143 49.0212 17.0172 49.142 17.2553C49.2627 17.4934 49.4525 17.6033 49.7113 17.6033C49.9356 17.6033 50.1599 17.5301 50.3669 17.3835C50.5739 17.237 50.7292 17.0356 50.8327 16.8158V6.88904H53.4724Z" fill="white"/>
<path d="M67.0842 6.88904V19.3982H65.0139L64.7896 17.8597H64.7378C64.1685 19.0136 63.3231 19.5997 62.2017 19.5997C61.4253 19.5997 60.8387 19.3249 60.4764 18.7755C60.0968 18.226 59.9243 17.3835 59.9243 16.2297V6.88904H62.5812V16.0649C62.5812 16.6143 62.633 17.0172 62.7538 17.2553C62.8745 17.4934 63.0643 17.6033 63.3231 17.6033C63.5474 17.6033 63.7717 17.5301 63.9787 17.3835C64.1858 17.237 64.341 17.0356 64.4445 16.8158V6.88904H67.0842Z" fill="white"/>
<path d="M60.6842 4.54466H58.0445V19.3981H55.4566V4.54466H52.8169V2.27359H60.6669V4.54466H60.6842ZM75.8494 8.88531C75.6941 8.09777 75.4353 7.53 75.073 7.1637C74.7107 6.81572 74.2276 6.63257 73.5892 6.63257C73.1062 6.63257 72.6403 6.77909 72.2263 7.07213C71.795 7.36517 71.4844 7.74978 71.2429 8.22597H71.2256V1.63257H68.6722V19.3798H70.8633L71.1393 18.1893H71.1911C71.3981 18.6106 71.7087 18.9403 72.1055 19.1967C72.5232 19.4396 72.9922 19.5657 73.4685 19.563C74.3656 19.563 75.0212 19.1234 75.4525 18.2443C75.8666 17.3652 76.0909 15.9915 76.0909 14.1417V12.1637C76.0909 10.7718 76.0046 9.67286 75.8494 8.88531ZM73.4167 13.9952C73.4167 14.911 73.3822 15.6252 73.3132 16.1381C73.2442 16.6509 73.1234 17.0172 72.9509 17.237C72.7784 17.4567 72.5541 17.5666 72.278 17.5666C72.0537 17.5666 71.864 17.5117 71.6742 17.4018C71.4844 17.2919 71.3464 17.1271 71.2256 16.9073V9.80107C71.3119 9.45308 71.4671 9.17836 71.6914 8.95858C71.9157 8.73879 72.14 8.62891 72.3988 8.62891C72.6748 8.62891 72.8819 8.73879 73.0199 8.95858C73.1752 9.17836 73.2614 9.56297 73.3304 10.0941C73.3822 10.6252 73.4167 11.3762 73.4167 12.3652V13.9952Z" fill="white"/>
</svg>