<svg xmlns="http://www.w3.org/2000/svg" width="36" height="37" viewBox="0 0 36 37" fill="none">
  <rect y="0.51416" width="36" height="36" rx="8" fill="#E7E6F2"/>
  <path d="M18.4388 25.4941L14.3766 25.4182C13.0613 25.3917 11.7428 25.4445 10.4533 25.1704C8.49177 24.7609 8.35281 22.753 8.20739 21.0688C8.00703 18.7009 8.0846 16.2901 8.46271 13.942C8.67616 12.6245 9.51619 11.8384 10.8153 11.7528C15.2006 11.4423 19.6151 11.4791 23.9908 11.624C24.4529 11.6373 24.9182 11.7098 25.3739 11.7924C27.6232 12.1954 27.678 14.4708 27.8238 16.3862C27.9692 18.3214 27.9078 20.2666 27.6299 22.1886C27.4069 23.78 26.9803 25.1146 25.1799 25.2434C22.9242 25.4119 20.7202 25.5475 18.4581 25.5043C18.4582 25.4941 18.4452 25.4941 18.4388 25.4941ZM16.0506 21.4651C17.7505 20.4677 19.418 19.4869 21.1081 18.4962C19.4051 17.4988 17.7408 16.518 16.0506 15.5273V21.4651Z" fill="#8D8BA7"/>
</svg>